{"title":"The last secrets of the Axis of Evil mp4 dvd rip 2","uid":8901225,"size":432668744,"categoryP":"video","categoryS":"movies","magnet":"?xt=urn:btih:98c11e2d65036aae343693c48f7d91d581f73047&amp;dn=The+last+secrets+of+the+Axis+of+Evil+mp4+dvd+rip+2&amp;tr=udp%3A%2F%2Ftracker.openbittorrent.com%3A80&amp;tr=udp%3A%2F%2Fopen.demonii.com%3A1337&amp;tr=udp%3A%2F%2Ftracker.coppersurfer.tk%3A6969&amp;tr=udp%3A%2F%2Fexodus.desync.com%3A6969","seeders":0,"leechers":0,"uploader":null,"files":6,"time":1378814005,"description":"Complete name                      :The last secrets of the Axis of Evil. mp4  dvd rip\nFormat                                   : MPEG-4\nFormat profile                           : Base Media\nCodec ID                                 : isom\nFile size                                : 470 MiB\nDuration                                 : 49mn 17s\nOverall bit rate                         : 1 332 Kbps\nMovie name                               : The_Last_Secrets_Of_The_Axis_Of_Evil_mp4\nGenre                                    : Documentary_War\nWriting application                      : Lavf54.46.100\n\nID                                       : 1\nFormat                                   : MPEG-4 Visual\nFormat settings, BVOP                    : No\nFormat settings, QPel                    : No\nFormat settings, GMC                     : No warppoints\nFormat settings, Matrix                  : Default (H.263)\nCodec ID                                 : 20\nDuration                                 : 49mn 17s\nBit rate mode                            : Constant\nBit rate                                 : 1 200 Kbps\nWidth                                    : 720 pixels\nHeight                                   : 540 pixels\nDisplay aspect ratio                     : 4:3\nFrame rate mode                          : Constant\nFrame rate                               : 23.976 fps\nColor space                              : YUV\nChroma subsampling                       : 4:2:0\nBit depth                                : 8 bits\nScan type                                : Progressive\nCompression mode                         : Lossy\nBits/(Pixel*Frame)                       : 0.129\nStream size                              : 423 MiB (90%)\nWriting library                          : Lavc54.79.100\n\nID                                       : 2\nFormat                                   : AAC\nFormat/Info                              : Advanced Audio Codec\nFormat profile                           : LC\nCodec ID                                 : 40\nDuration                                 : 49mn 17s\nBit rate mode                            : Constant\nBit rate                                 : 128 Kbps\nChannel(s)                               : 2 channels\nChannel positions                        : Front: L R\nSampling rate                            : 44.1 KHz\nCompression mode                         : Lossy\nStream size                              : 45.1 MiB (10%)","torrent":{"xt":"urn:btih:98c11e2d65036aae343693c48f7d91d581f73047","amp;dn":"The+last+secrets+of+the+Axis+of+Evil+mp4+dvd+rip+2","amp;tr":["udp%3A%2F%2Ftracker.openbittorrent.com%3A80","udp%3A%2F%2Fopen.demonii.com%3A1337","udp%3A%2F%2Ftracker.coppersurfer.tk%3A6969","udp%3A%2F%2Fexodus.desync.com%3A6969"],"infoHash":"98c11e2d65036aae343693c48f7d91d581f73047","infoHashBuffer":{"type":"Buffer","data":[152,193,30,45,101,3,106,174,52,54,147,196,143,125,145,213,129,247,48,71]},"announce":[],"urlList":[]}}